<?xml version="1.0" encoding="UTF-8"?>
<svg xmlns="http://www.w3.org/2000/svg" xmlns:xlink="http://www.w3.org/1999/xlink" viewBox="0 0 48 48" version="1.1" width="96px" height="96px">
<g id="surface1">
<path style="fill:#EA8806;" d="M 41.863281 24.433594 L 40.855469 14.28125 C 40.707031 12.96875 39.613281 12.03125 38.410156 12.183594 C 37.210938 12.351563 36.355469 13.539063 36.5 14.859375 L 36.929688 18.699219 L 36.289063 17.902344 L 27.140625 6.554688 C 26.609375 5.898438 25.65625 5.816406 25.007813 6.355469 C 24.351563 6.902344 24.25 7.871094 24.777344 8.523438 L 27.125 11.433594 L 30.238281 15.363281 C 30.238281 15.363281 29.101563 15.410156 28.292969 16.203125 L 28.007813 15.804688 L 28.109375 15.597656 C 28.46875 14.847656 28.136719 13.945313 27.363281 13.59375 C 27.152344 13.492188 26.929688 13.453125 26.710938 13.449219 C 26.46875 13.445313 26.3125 13.492188 26.1875 13.539063 L 24.867188 11.902344 C 24.898438 11.882813 24.878906 11.894531 24.863281 11.894531 L 21.933594 8.261719 C 21.410156 7.613281 20.453125 7.527344 19.804688 8.074219 C 19.152344 8.613281 19.050781 9.585938 19.574219 10.238281 L 19.871094 10.609375 L 21.203125 12.261719 C 20.785156 12.371094 20.414063 12.652344 20.214844 13.066406 L 19.847656 13.828125 L 19.84375 13.839844 L 18.632813 12.339844 C 18.546875 12.230469 18.441406 12.144531 18.332031 12.066406 C 18.25 12.007813 18.160156 11.957031 18.066406 11.917969 C 18.019531 11.894531 17.96875 11.871094 17.921875 11.859375 C 17.800781 11.820313 17.675781 11.800781 17.550781 11.796875 C 17.503906 11.792969 17.457031 11.792969 17.410156 11.796875 C 17.273438 11.804688 17.136719 11.824219 17.007813 11.867188 C 16.980469 11.878906 16.953125 11.890625 16.929688 11.898438 C 16.78125 11.960938 16.640625 12.035156 16.515625 12.140625 C 16.511719 12.144531 16.507813 12.144531 16.503906 12.148438 C 15.851563 12.691406 15.75 13.660156 16.273438 14.3125 L 16.945313 15.144531 L 15.816406 17.488281 C 15.363281 17.375 14.863281 17.46875 14.472656 17.792969 C 13.820313 18.34375 13.71875 19.3125 14.242188 19.964844 L 14.476563 20.261719 L 13.578125 22.128906 C 14.265625 22.144531 14.96875 22.296875 15.628906 22.597656 L 15.902344 22.027344 L 22.125 29.742188 L 24.046875 32.128906 L 24.777344 32.960938 C 24.914063 33.121094 25.058594 33.273438 25.203125 33.429688 L 25.113281 33.621094 L 25.285156 33.515625 C 26.441406 34.730469 27.808594 35.679688 29.335938 36.152344 L 29.332031 36.152344 C 29.335938 36.152344 29.339844 36.152344 29.339844 36.15625 C 29.589844 36.230469 29.847656 36.296875 30.105469 36.34375 C 30.117188 36.347656 30.128906 36.347656 30.140625 36.351563 C 30.398438 36.402344 30.664063 36.433594 30.933594 36.453125 C 30.945313 36.453125 30.953125 36.457031 30.964844 36.457031 C 31.234375 36.476563 31.515625 36.480469 31.796875 36.464844 C 31.800781 36.464844 31.804688 36.464844 31.8125 36.464844 C 32.070313 36.449219 32.335938 36.417969 32.601563 36.375 C 32.628906 36.371094 32.65625 36.371094 32.683594 36.367188 C 32.683594 36.363281 32.6875 36.359375 32.6875 36.359375 C 34.179688 36.097656 35.761719 35.367188 37.40625 33.996094 C 41.308594 30.730469 42.425781 27.105469 41.863281 24.433594 Z "/>
<path style="fill:#FFB74D;" d="M 31.628906 32.164063 C 30.96875 31.148438 29.523438 30.890625 28.398438 31.585938 L 25.109375 33.621094 L 25.554688 32.699219 L 31.882813 19.566406 C 32.246094 18.808594 31.914063 17.910156 31.148438 17.558594 C 30.375 17.199219 29.457031 17.523438 29.089844 18.277344 L 24.753906 27.277344 C 24.296875 26.765625 23.738281 26.339844 23.074219 26.03125 L 28.109375 15.597656 C 28.46875 14.847656 28.136719 13.945313 27.363281 13.589844 C 26.597656 13.234375 25.675781 13.558594 25.3125 14.308594 L 20.28125 24.742188 L 18.421875 23.882813 L 23.007813 14.363281 C 23.371094 13.605469 23.039063 12.710938 22.265625 12.355469 C 21.496094 12 20.574219 12.324219 20.210938 13.078125 L 15.621094 22.597656 C 14.964844 22.292969 14.265625 22.144531 13.574219 22.128906 L 17.03125 14.953125 C 17.394531 14.199219 17.066406 13.296875 16.296875 12.941406 C 15.523438 12.585938 14.601563 12.910156 14.234375 13.664063 L 8.785156 24.980469 L 7.453125 27.738281 L 7.015625 28.753906 C 5.144531 32.914063 5.441406 37.816406 11.496094 40.605469 C 16.121094 42.738281 19.875 42.191406 22.046875 40.539063 L 30.785156 35.273438 C 31.90625 34.574219 32.285156 33.1875 31.628906 32.164063 Z "/>
</g>
</svg>
