<?xml version="1.0" encoding="UTF-8" standalone="yes"?>
<svg xmlns="http://www.w3.org/2000/svg" xmlns:xlink="http://www.w3.org/1999/xlink" width="80pt" height="80pt" viewBox="0 0 80 80" version="1.1" fill="#000000">
  <g id="surface181008">
    <path style="fill:none;stroke-width:2.002;stroke-linecap:butt;stroke-linejoin:round;stroke:#000000;stroke-opacity:1;stroke-miterlimit:10;" d="M 6.000977 8.999023 L 2.84668 8.999023 C 1.826172 8.999023 1.000977 9.829102 1.000977 10.849609 L 1.000977 44.150391 C 1.000977 45.170898 1.826172 46.000977 2.84668 46.000977 C 2.84668 46.000977 18.066406 46.000977 20 46.000977 C 20 46.000977 21.66748 48.999023 25 48.999023 C 28.33252 48.999023 30 46.000977 30 46.000977 C 31.958008 46.000977 47.15332 46.000977 47.15332 46.000977 C 48.173828 46.000977 48.999023 45.170898 48.999023 44.150391 L 48.999023 10.849609 C 48.999023 9.829102 48.173828 8.999023 47.15332 8.999023 L 43.999023 8.999023 " transform="matrix(1.6,0,0,1.6,0,0)"/>
    <path style="fill:none;stroke-width:2;stroke-linecap:round;stroke-linejoin:round;stroke:#000000;stroke-opacity:1;stroke-miterlimit:10;" d="M 25 8.999023 L 25 43.000488 C 25 43.000488 29.082031 38.999023 43.999023 38.999023 L 43.999023 3.000488 C 28.999023 3.000488 25 8.999023 25 8.999023 Z M 25 8.999023 L 25 43.000488 C 25 43.000488 20.917969 38.999023 6.000977 38.999023 L 6.000977 3.000488 C 21.000977 3.000488 25 8.999023 25 8.999023 Z M 25 8.999023 " transform="matrix(1.6,0,0,1.6,0,0)"/>
  </g>
</svg>
