<?xml version="1.0" encoding="UTF-8"?>
<svg xmlns="http://www.w3.org/2000/svg" xmlns:xlink="http://www.w3.org/1999/xlink" width="80px" height="80px" viewBox="0 0 80 80" version="1.1">
<g id="surface68812">
<path style=" stroke:none;fill-rule:nonzero;fill:rgb(87.45098%,94.117647%,99.607843%);fill-opacity:1;" d="M 17 5 L 71 5 L 71 67 L 17 67 Z M 17 5 "/>
<path style=" stroke:none;fill-rule:nonzero;fill:rgb(27.843137%,53.333333%,78.039216%);fill-opacity:1;" d="M 70 6 L 70 66 L 18 66 L 18 6 L 70 6 M 72 4 L 16 4 L 16 68 L 72 68 Z M 72 4 "/>
<path style=" stroke:none;fill-rule:nonzero;fill:rgb(27.843137%,53.333333%,78.039216%);fill-opacity:1;" d="M 11 70 L 11 10 C 11 7.242188 13.242188 5 16 5 L 17 5 L 17 70 Z M 11 70 "/>
<path style=" stroke:none;fill-rule:nonzero;fill:rgb(27.843137%,53.333333%,78.039216%);fill-opacity:1;" d="M 16 6 L 16 69 L 12 69 L 12 10 C 12 7.792969 13.792969 6 16 6 M 18 4 L 16 4 C 12.6875 4 10 6.6875 10 10 L 10 71 L 18 71 Z M 18 4 "/>
<path style=" stroke:none;fill-rule:nonzero;fill:rgb(59.607843%,80%,99.215686%);fill-opacity:1;" d="M 18 6 L 16 6 C 13.789062 6 12 7.789062 12 10 L 12 70.460938 L 18 70.460938 Z M 18 6 "/>
<path style=" stroke:none;fill-rule:nonzero;fill:rgb(100%,100%,100%);fill-opacity:1;" d="M 15 75 C 12.792969 75 11 73.207031 11 71 C 11 68.792969 12.792969 67 15 67 L 71 67 L 71 67.679688 C 70.640625 68.222656 70 69.421875 70 71 C 70 72.578125 70.640625 73.777344 71 74.320312 L 71 75 Z M 15 75 "/>
<path style=" stroke:none;fill-rule:nonzero;fill:rgb(27.843137%,53.333333%,78.039216%);fill-opacity:1;" d="M 69.679688 68 C 69.328125 68.742188 69 69.769531 69 71 C 69 72.230469 69.328125 73.261719 69.679688 74 L 15 74 C 13.347656 74 12 72.652344 12 71 C 12 69.347656 13.347656 68 15 68 L 69.679688 68 M 72 66 L 15 66 C 12.238281 66 10 68.238281 10 71 C 10 73.761719 12.238281 76 15 76 L 72 76 L 72 74 C 72 74 71 72.804688 71 71 C 71 69.195312 72 68 72 68 Z M 72 66 "/>
</g>
</svg>
