<?xml version="1.0" encoding="UTF-8"?>
<svg xmlns="http://www.w3.org/2000/svg" xmlns:xlink="http://www.w3.org/1999/xlink" viewBox="0 0 48 48" version="1.1" width="96px" height="96px">
<g id="surface1">
<path style="fill:#9FA8DA;" d="M 42.101563 22 C 42.246094 22.480469 42.296875 22.964844 42.339844 23.464844 C 42.367188 23.964844 42.339844 24.46875 42.246094 24.980469 C 42.15625 25.480469 42.164063 26.09375 41.738281 26.488281 C 41.34375 26.875 40.785156 27.1875 40.0625 27.078125 L 39.933594 26.925781 C 39.910156 26.214844 39.957031 25.8125 40.046875 25.417969 C 40.117188 25.03125 40.515625 24.804688 40.738281 24.4375 C 41.160156 23.714844 41.582031 22.894531 41.898438 22 Z "/>
<path style="fill:#9FA8DA;" d="M 40.90625 14.964844 C 40.902344 14.519531 40.902344 14.09375 40.84375 13.675781 C 40.804688 13.261719 40.746094 12.859375 40.667969 12.480469 C 40.589844 12.089844 40.304688 11.765625 40.386719 11.402344 C 40.457031 11.023438 40.570313 10.644531 40.90625 10.042969 L 41.09375 9.960938 C 41.773438 10.136719 42.140625 10.578125 42.355469 11.042969 C 42.59375 11.519531 42.367188 12.046875 42.269531 12.511719 C 42.179688 12.984375 42.027344 13.4375 41.828125 13.859375 C 41.613281 14.277344 41.398438 14.683594 41.09375 15.039063 Z "/>
<path style="fill:#9FA8DA;" d="M 37.90625 15.964844 C 37.902344 15.519531 37.902344 15.09375 37.84375 14.675781 C 37.804688 14.261719 37.746094 13.859375 37.667969 13.480469 C 37.589844 13.089844 37.304688 12.765625 37.386719 12.402344 C 37.457031 12.023438 37.570313 11.644531 37.90625 11.042969 L 38.09375 10.960938 C 38.773438 11.136719 39.140625 11.578125 39.355469 12.042969 C 39.59375 12.519531 39.367188 13.046875 39.269531 13.511719 C 39.179688 13.984375 39.027344 14.4375 38.828125 14.859375 C 38.613281 15.277344 38.398438 15.683594 38.09375 16.039063 Z "/>
<path style="fill:#512DA8;" d="M 44 24.003906 C 44 24.003906 44 26.003906 42 27.003906 C 40 28.003906 32.414063 29.175781 31 32.003906 C 30 34.003906 28 43 28 43 L 4 43 C 6 40 10 39 10 39 C 10 39 8 36 4 36 C 6 32 12 32 12 32 C 12 32 10 27.996094 5 28 C 7 24.996094 13 25 13 25 C 13 25 11 21 7 21 C 9 18 15 19 15 19 C 15 19 13 14.996094 9 15 C 11 10.996094 17 13 17 13 C 17 13 17 10 13 9.003906 C 16 5 22 8.003906 22 8.003906 C 22 8.003906 25.332031 4.917969 29 5.003906 C 32.667969 5.085938 33 6.003906 35 6.003906 C 37 6.003906 38 5.003906 40 5.003906 C 42 5.003906 44 7.003906 44 10.003906 C 44 10.003906 33 15.023438 31 20.011719 C 28.324219 25.855469 34 25 34 25 Z "/>
<path style="fill:#7E57C2;" d="M 44 24.003906 C 44 24.003906 44 26.003906 42 27.003906 C 40 28.003906 32.414063 29.175781 31 32.003906 C 30 34.003906 28 43 28 43 L 11 43 C 15 13 22 8.003906 22 8.003906 C 22 8.003906 25.332031 4.917969 29 5.003906 C 32.667969 5.085938 33 6.003906 35 6.003906 C 37 6.003906 38 5.003906 40 5.003906 C 42 5.003906 44 7.003906 44 10.003906 C 44 10.003906 37.007813 13.179688 33.160156 17 C 23.8125 23.9375 26 28 34 25 C 44 24.003906 44 24.003906 44 24.003906 Z "/>
<path style="fill:#5E35B1;" d="M 33 10 C 33 10 31 15 27.5 15 C 25.566406 15 24 13.433594 24 11.5 C 24 9.570313 25 8 27.5 8 C 29.433594 8 33 10 33 10 Z "/>
<path style="fill:#311B92;" d="M 39 8 C 39 8.554688 39.445313 9 40 9 C 40.554688 9 42 9 42 9 C 42 9 41 7 40 7 C 39.445313 7 39 7.445313 39 8 Z "/>
<path style="fill:#311B92;" d="M 27.5 8 C 27.445313 8 27.125 8 27 8 C 24 8 22.960938 10.070313 23.003906 12 C 24.105469 11.574219 25.085938 11.371094 25.980469 11.300781 C 27.824219 11.21875 30.054688 11.660156 31.496094 12.589844 C 32.433594 11.339844 33 10 33 10 C 33 10 29.433594 8 27.5 8 Z "/>
<path style="fill:#212121;" d="M 26.289063 11.300781 C 26.109375 11.480469 26 11.726563 26 12 C 26 12.554688 26.449219 13 27 13 C 27.550781 13 28 12.554688 28 12 C 28 11.761719 27.90625 11.550781 27.765625 11.378906 C 27.265625 11.320313 26.769531 11.292969 26.289063 11.300781 Z "/>
<path style="fill:#EEFF41;" d="M 28.953125 11.582031 C 28.566406 11.492188 28.167969 11.441406 27.773438 11.394531 C 27.90625 11.5625 28 11.765625 28 12 C 28 12.554688 27.550781 13 27 13 C 26.449219 13 26 12.554688 26 12 C 26 11.730469 26.109375 11.488281 26.28125 11.308594 C 26.183594 11.3125 26.078125 11.296875 25.980469 11.300781 C 25.695313 11.324219 25.398438 11.367188 25.097656 11.417969 C 25.039063 11.601563 25 11.796875 25 12 C 25 13.105469 25.894531 14 27 14 C 28.105469 14 29 13.105469 29 12 C 29 11.855469 28.984375 11.71875 28.953125 11.582031 Z "/>
<path style="fill:#1A237E;" d="M 28 39 L 25 38 L 22 40 L 23 42 L 27 42 Z "/>
<path style="fill:#1A237E;" d="M 25 37 L 28 38 L 29 35 Z "/>
<path style="fill:#1A237E;" d="M 21 36 L 21 38 L 22 39 L 24 38 L 24 34 Z "/>
<path style="fill:#1A237E;" d="M 30 32 L 29 34 L 25 36 L 25 33 L 27 31 Z "/>
<path style="fill:#1A237E;" d="M 20 38 L 22 42 L 19 42 L 17 40 Z "/>
<path style="fill:#1A237E;" d="M 15 42 L 18 42 L 16 40 Z "/>
<path style="fill:#1A237E;" d="M 31 29 L 30 31 L 27 30 Z "/>
<path style="fill:#9C27B0;" d="M 42 17 C 41.8125 17.617188 41 20 39.5 20 C 38.671875 20 38 19.328125 38 18.5 C 38 17.824219 38.453125 17.257813 39.066406 17.070313 C 38.886719 17.027344 38.695313 17 38.5 17 C 37.117188 17 36 18.117188 36 19.5 C 36 19.984375 35.789063 20.9375 35.058594 20.988281 C 35.027344 20.992188 34.996094 20.992188 34.96875 20.992188 C 34.433594 20.976563 34 20.539063 34 20 C 34 19.511719 34.535156 19.089844 35 19 C 33 19 32 20.894531 32 22 C 32 23.105469 32.894531 24 34 24 C 34.53125 24 34.53125 24 34.53125 24 C 36 24 36 23 36 23 C 36 23 35.777344 23 35.5 23 C 35.222656 23 35 22.777344 35 22.5 C 35 22.222656 35.222656 22 35.5 22 C 36.023438 22 36 22 36 22 C 36 22 37.949219 22 38.65625 22 C 38.65625 21.996094 38.65625 21.992188 38.660156 21.984375 C 41.992188 21.835938 42.039063 17.183594 42 17 Z "/>
</g>
</svg>
