<?xml version="1.0" encoding="UTF-8"?>
<svg xmlns="http://www.w3.org/2000/svg" xmlns:xlink="http://www.w3.org/1999/xlink" width="48px" height="48px" viewBox="0 0 48 48" version="1.1">
<g id="surface337095">
<path style=" stroke:none;fill-rule:nonzero;fill:rgb(100%,72.941176%,34.117647%);fill-opacity:1;" d="M 30 26 C 34.75 22.417969 39.835938 21.25 43 27 C 43 36 44.167969 44 36 44 C 34 41 35 40 33 40 C 31 40 30.691406 41.753906 25 42 C 21.578125 42.148438 17 41 13 38 C 10.207031 35.902344 5 31 4 29 C 3.609375 28.21875 4.378906 24.308594 6.398438 19.796875 C 9.457031 12.96875 11.96875 10.132812 13.8125 8 C 16.652344 5.121094 19 4 20 4 C 21 4 27.023438 5.011719 28 6 C 29 7 28.765625 7.527344 29 9 C 29.234375 10.472656 28.761719 11.070312 28.265625 11.976562 C 28.09375 12.289062 27.546875 12.914062 27.066406 12.496094 C 26.792969 12.984375 25.734375 13.292969 25.339844 12.621094 C 24.964844 13.242188 23.902344 12.964844 23.664062 12.519531 C 23.285156 13.109375 22.464844 12.449219 22.207031 12.191406 C 22.019531 12.003906 21.78125 11.722656 21.628906 11.425781 C 21.59375 11.390625 21.144531 10.261719 21.621094 10.15625 C 20.613281 10.378906 20.203125 10.15625 19.492188 10.878906 C 18.78125 11.597656 16.890625 13.257812 17 16.582031 C 17.121094 20.378906 16 23 15 24 C 15 24 16 24 17 24 C 19.625 22.0625 24 20 30 26 Z M 30 26 "/>
<path style=" stroke:none;fill-rule:nonzero;fill:rgb(97.647059%,65.882353%,14.509804%);fill-opacity:1;" d="M 43 27 C 39.835938 21.25 34.75 22.417969 30 26 C 30 26 32.085938 29.292969 33.085938 34.292969 C 34.085938 29.292969 38 26 43 27 Z M 25.625 22.792969 C 25.625 22.792969 25.617188 22.78125 25.613281 22.773438 C 21.917969 21.082031 18.996094 22.523438 17 24 C 16 24 15 24 15 24 C 15 24 15 33 25.125 36.125 C 25.125 36.125 17.167969 31.335938 20 26 C 22 22 24.625 22.792969 25.625 22.792969 Z M 25.625 22.792969 "/>
<path style=" stroke:none;fill-rule:nonzero;fill:rgb(97.647059%,65.882353%,14.509804%);fill-opacity:1;" d="M 34.875 29.625 L 33 29 C 33 29 32.34375 28.054688 33 32 C 33.75 36.5 31.125 39.75 24.75 39.875 C 24.75 39.875 17.804688 39.648438 8.703125 33.785156 C 10.628906 35.414062 11.6875 37.015625 13 38 C 17 41 21.578125 42.148438 25 42 C 30.691406 41.753906 31 40 33 40 C 35 40 34 41 36 44 C 38.007812 44 39.480469 43.578125 40.515625 42.625 C 38.757812 35.933594 32.515625 35.050781 34.875 29.625 Z M 34.875 29.625 "/>
<path style=" stroke:none;fill-rule:nonzero;fill:rgb(97.647059%,65.882353%,14.509804%);fill-opacity:1;" d="M 13 38 C 14.449219 39.089844 15.976562 39.925781 17.496094 40.554688 C 19.425781 40.691406 21.578125 40.550781 24 40 C 16.75 38.75 13.574219 33.914062 10.980469 31.46875 C 5.265625 26.082031 8.25 23.03125 11 16.5 C 13.167969 11.347656 13.933594 8.144531 15.898438 6.113281 C 15.605469 6.347656 15.300781 6.605469 14.992188 6.882812 C 14.953125 6.917969 14.917969 6.945312 14.878906 6.980469 C 14.53125 7.292969 14.175781 7.632812 13.8125 8 C 11.96875 10.132812 9.457031 12.96875 6.398438 19.796875 C 4.378906 24.308594 3.609375 28.21875 4 29 C 5 31 10.207031 35.902344 13 38 Z M 13 38 "/>
</g>
</svg>
