<?xml version="1.0" encoding="iso-8859-1"?>
<!-- Generator: Adobe Illustrator 21.1.0, SVG Export Plug-In . SVG Version: 6.00 Build 0)  -->
<svg xmlns="http://www.w3.org/2000/svg" xmlns:xlink="http://www.w3.org/1999/xlink" version="1.1" id="Layer_1" x="0px" y="0px" viewBox="0 0 64 64" style="enable-background:new 0 0 64 64;" xml:space="preserve" width="96px" height="96px">
<linearGradient id="SVGID_1__59963" gradientUnits="userSpaceOnUse" x1="32" y1="686" x2="32" y2="683.6667" gradientTransform="matrix(1 0 0 -1 0 738)" spreadMethod="reflect">
	<stop offset="0" style="stop-color:#6DC7FF"/>
	<stop offset="1" style="stop-color:#E6ABFF"/>
</linearGradient>
<rect x="17" y="52" style="fill:url(#SVGID_1__59963);" width="30" height="2"/>
<linearGradient id="SVGID_2__59963" gradientUnits="userSpaceOnUse" x1="32" y1="6" x2="32" y2="58" spreadMethod="reflect">
	<stop offset="0" style="stop-color:#1A6DFF"/>
	<stop offset="1" style="stop-color:#C822FF"/>
</linearGradient>
<path style="fill:url(#SVGID_2__59963);" d="M46,6H18c-3.309,0-6,2.691-6,6v41c0,2.757,2.243,5,5,5h30c2.757,0,5-2.243,5-5v-1v-4v-4v-3V12  C52,8.691,49.309,6,46,6z M50,53c0,1.654-1.346,3-3,3H17c-1.654,0-3-1.346-3-3s1.346-3,3-3h29c1.535,0,2.937-0.58,4-1.531V52V53z   M50,44c0,2.206-1.794,4-4,4H17c-1.13,0-2.162,0.391-3,1.026V12c0-2.206,1.794-4,4-4h28c2.206,0,4,1.794,4,4v29V44z"/>
</svg>
