<?xml version="1.0" encoding="UTF-8"?>
<svg xmlns="http://www.w3.org/2000/svg" xmlns:xlink="http://www.w3.org/1999/xlink" width="96px" height="96px" viewBox="0 0 96 96" version="1.1">
<g id="surface337184">
<path style=" stroke:none;fill-rule:nonzero;fill:rgb(100%,23.921569%,0%);fill-opacity:1;" d="M 50 12 L 68 20 L 50 28 Z M 50 12 "/>
<path style=" stroke:none;fill-rule:nonzero;fill:rgb(36.470588%,25.098039%,21.568627%);fill-opacity:1;" d="M 46 8 L 50 8 L 50 38 L 46 38 Z M 46 8 "/>
<path style=" stroke:none;fill-rule:nonzero;fill:rgb(56.470588%,64.313725%,68.235294%);fill-opacity:1;" d="M 96 88 L 48 88 L 63.21875 61.363281 L 68 64 L 80 64 L 82.699219 64.730469 Z M 96 88 "/>
<path style=" stroke:none;fill-rule:nonzero;fill:rgb(70.196078%,89.803922%,98.823529%);fill-opacity:1;" d="M 82.699219 64.730469 L 82 71.585938 L 74 65.429688 L 68 71.585938 L 63.21875 61.363281 L 70.273438 49.015625 C 71.046875 47.660156 72.953125 47.660156 73.726562 49.015625 Z M 82.699219 64.730469 "/>
<path style=" stroke:none;fill-rule:nonzero;fill:rgb(56.470588%,64.313725%,68.235294%);fill-opacity:1;" d="M 0 88 L 48 88 L 32.78125 61.363281 L 28 64 L 16 64 L 13.300781 64.730469 Z M 0 88 "/>
<path style=" stroke:none;fill-rule:nonzero;fill:rgb(70.196078%,89.803922%,98.823529%);fill-opacity:1;" d="M 13.300781 64.730469 L 14 71.585938 L 22 65.429688 L 28 71.585938 L 32.78125 61.363281 L 25.726562 49.015625 C 24.953125 47.660156 23.046875 47.660156 22.273438 49.015625 Z M 13.300781 64.730469 "/>
<path style=" stroke:none;fill-rule:nonzero;fill:rgb(32.941176%,43.137255%,47.843137%);fill-opacity:1;" d="M 80 88 L 16 88 L 29.679688 64.300781 L 36 60 L 60 60 L 66.320312 64.300781 Z M 80 88 "/>
<path style=" stroke:none;fill-rule:nonzero;fill:rgb(86.666667%,17.254902%,0%);fill-opacity:1;" d="M 46 12 L 50 12 L 50 28 L 46 28 Z M 46 12 "/>
<path style=" stroke:none;fill-rule:nonzero;fill:rgb(50.588235%,83.137255%,98.039216%);fill-opacity:1;" d="M 66.320312 64.300781 L 62 68 L 55 62 L 48 68 L 41 62 L 34 68 L 29.679688 64.300781 L 29.898438 63.898438 L 44.539062 38.480469 C 46.441406 35.179688 49.558594 35.179688 51.460938 38.480469 L 66.101562 63.898438 Z M 66.320312 64.300781 "/>
</g>
</svg>
